<?xml version="1.0" standalone="no"?>
<!DOCTYPE svg PUBLIC "-//W3C//DTD SVG 20010904//EN"
 "http://www.w3.org/TR/2001/REC-SVG-20010904/DTD/svg10.dtd">
<svg version="1.0" xmlns="http://www.w3.org/2000/svg"
 width="505.000000pt" height="292.000000pt" viewBox="0 0 505.000000 292.000000"
 preserveAspectRatio="xMidYMid meet">

<g transform="translate(0.000000,292.000000) scale(0.100000,-0.100000)"
fill="#000000" stroke="none">
<path d="M616 2811 c-3 -5 121 -266 277 -580 202 -409 286 -570 297 -568 13 2
15 42 18 279 l2 278 278 2 c230 3 277 5 277 17 0 9 -220 124 -565 297 -311
155 -568 283 -572 283 -4 1 -9 -3 -12 -8z m563 -300 l494 -248 -174 -6 c-96
-4 -207 -7 -246 -7 l-73 0 0 -93 c0 -52 -3 -163 -7 -247 l-6 -153 -35 69
c-130 256 -460 934 -454 933 4 0 229 -112 501 -248z"/>
<path d="M1700 1616 c0 -8 22 -153 50 -323 45 -276 50 -324 50 -466 0 -123 3
-158 13 -155 9 4 13 47 14 164 2 151 5 174 65 471 56 276 64 343 42 320 -4 -4
-26 -104 -50 -224 -65 -322 -65 -325 -70 -320 -3 2 -22 116 -44 253 -22 137
-42 259 -45 272 -6 24 -25 31 -25 8z"/>
<path d="M3858 1345 l-3 -285 -110 262 c-61 144 -116 263 -123 266 -9 3 -12
-102 -12 -457 0 -301 3 -461 10 -461 7 0 10 146 10 417 0 229 3 413 7 410 3
-4 53 -116 111 -249 l106 -243 5 -163 c4 -98 10 -162 16 -162 6 0 11 167 13
475 2 416 0 475 -13 475 -13 0 -15 -40 -17 -285z"/>
<path d="M540 1390 c0 -188 -2 -210 -17 -220 -17 -10 -17 -10 0 -20 15 -10 17
-33 17 -240 0 -144 4 -230 10 -230 6 0 11 89 12 233 l3 232 77 5 c71 5 80 8
112 39 l36 35 0 116 c0 104 -3 121 -25 166 -33 67 -81 94 -164 94 l-61 0 0
-210z m156 163 c46 -30 67 -88 72 -200 4 -82 1 -107 -11 -126 -23 -35 -77 -57
-141 -57 l-56 0 0 200 0 200 55 0 c35 0 65 -6 81 -17z"/>
<path d="M2440 1391 c0 -181 -2 -211 -15 -211 -8 0 -15 -7 -15 -15 0 -8 7 -15
15 -15 13 0 15 -32 15 -230 0 -147 4 -230 10 -230 6 0 10 83 10 229 l0 229 73
4 c83 4 110 -8 126 -54 6 -18 11 -112 11 -224 0 -123 4 -194 10 -194 6 0 10 6
11 13 1 11 0 341 -1 394 0 12 -12 35 -26 52 l-26 31 26 31 c28 32 28 35 26
174 -1 100 -19 153 -64 195 -24 21 -39 25 -107 29 l-79 3 0 -211z m170 154
c40 -38 60 -109 60 -213 0 -82 -1 -85 -34 -118 -32 -32 -38 -34 -105 -34 l-71
0 0 193 c0 107 3 197 8 201 4 4 31 6 60 4 41 -4 59 -11 82 -33z"/>
<path d="M4015 1588 c-3 -7 -4 -215 -3 -463 l3 -450 55 -3 c79 -5 123 11 165
61 l36 42 -3 350 c-3 343 -3 351 -26 393 -33 61 -72 82 -155 82 -45 0 -69 -4
-72 -12z m173 -41 c53 -56 56 -79 60 -415 4 -345 3 -351 -55 -402 -29 -26 -41
-30 -93 -30 l-60 0 0 435 0 435 63 0 c53 0 67 -4 85 -23z"/>
<path d="M940 1130 l0 -461 107 3 c74 2 108 7 111 16 3 9 -20 12 -92 12 l-96
0 -2 442 c-2 342 -6 442 -15 446 -10 3 -13 -93 -13 -458z"/>
<path d="M1402 1508 c-6 -46 -23 -185 -38 -310 -26 -207 -30 -227 -49 -233
-19 -5 -19 -6 -2 -19 18 -14 18 -19 2 -146 -9 -72 -14 -134 -11 -138 14 -14
24 20 36 123 18 168 11 155 90 155 80 0 72 14 95 -155 20 -141 22 -152 35
-139 14 14 -120 944 -135 944 -8 0 -16 -31 -23 -82z m58 -274 c16 -115 32
-221 34 -236 l6 -28 -70 0 -69 0 4 28 c5 27 55 436 55 449 0 3 2 4 5 1 3 -2
18 -99 35 -214z"/>
<path d="M2145 1566 c-17 -7 -43 -28 -58 -45 l-27 -33 0 -364 0 -364 34 -38
c33 -35 37 -37 99 -37 51 0 70 4 87 20 45 40 50 71 50 295 l0 210 -81 0 c-60
0 -80 -3 -77 -12 3 -8 28 -14 66 -16 l62 -3 0 -200 c0 -219 -4 -235 -61 -265
-36 -18 -53 -18 -94 2 -63 29 -65 45 -65 408 0 360 3 382 59 410 46 24 94 20
130 -10 28 -23 31 -32 31 -80 0 -41 4 -54 15 -54 11 0 15 12 15 48 0 105 -92
169 -185 128z"/>
<path d="M2894 1561 c-30 -19 -64 -57 -64 -73 0 -17 22 -7 48 23 50 56 148 56
177 -1 14 -26 15 -81 13 -390 l-3 -360 -28 -27 c-47 -48 -144 -29 -167 33 -6
14 -10 172 -10 360 0 264 -3 335 -12 331 -20 -6 -18 -674 1 -711 22 -40 71
-66 126 -66 42 0 52 4 81 36 l34 35 0 376 c0 408 -1 417 -57 442 -37 17 -105
13 -139 -8z"/>
<path d="M3230 1188 c0 -364 2 -396 19 -435 23 -50 51 -69 112 -78 42 -6 49
-4 82 25 22 19 42 48 49 73 18 60 18 798 1 804 -10 4 -13 -73 -13 -361 0 -390
-6 -453 -46 -493 -44 -44 -122 -25 -158 37 -20 33 -21 52 -24 428 -2 238 -7
392 -13 392 -5 0 -9 -152 -9 -392z"/>
<path d="M2167 314 c-15 -15 -6 -24 23 -24 l30 0 0 -95 c0 -88 1 -95 20 -95
19 0 20 7 20 95 l0 95 31 0 c20 0 29 4 27 13 -5 13 -139 23 -151 11z"/>
<path d="M2358 227 c-54 -132 -52 -127 -34 -127 9 0 22 11 28 25 9 20 18 25
49 25 33 0 40 -4 45 -25 4 -16 13 -25 26 -25 12 0 18 5 15 12 -32 81 -80 194
-85 200 -4 4 -24 -35 -44 -85z m52 -6 c0 -5 3 -16 6 -25 4 -12 0 -16 -15 -16
-22 0 -25 8 -15 34 7 17 24 22 24 7z"/>
<path d="M2520 210 l0 -110 60 0 c47 0 60 3 60 15 0 11 -12 15 -45 15 l-45 0
0 95 c0 78 -3 95 -15 95 -12 0 -15 -19 -15 -110z"/>
<path d="M2670 210 c0 -91 3 -110 15 -110 11 0 15 12 15 48 l1 47 42 -47 c24
-27 51 -48 60 -48 24 0 22 6 -23 59 -22 26 -40 51 -40 55 0 4 16 28 36 54 31
40 33 48 18 51 -17 3 -29 -7 -73 -67 l-20 -27 -1 48 c0 35 -4 47 -15 47 -12 0
-15 -19 -15 -110z"/>
<path d="M2962 304 c-33 -23 -27 -53 20 -101 39 -39 41 -44 26 -59 -12 -12
-20 -13 -35 -6 -10 6 -25 7 -32 3 -10 -6 -7 -12 10 -25 29 -20 48 -20 77 0 35
24 29 63 -18 109 -46 45 -50 59 -15 53 34 -7 53 17 26 31 -26 14 -32 14 -59
-5z"/>
<path d="M3097 314 c-4 -4 -7 -54 -7 -111 0 -96 1 -103 20 -103 17 0 20 7 20
45 l0 45 40 0 40 0 0 -45 c0 -39 3 -45 20 -45 20 0 21 5 18 108 -2 87 -6 107
-18 107 -11 0 -16 -13 -18 -47 l-3 -48 -39 0 -39 0 -3 47 c-3 44 -15 62 -31
47z"/>
<path d="M3328 227 c-54 -132 -52 -127 -34 -127 9 0 22 11 28 25 9 20 18 25
49 25 33 0 40 -4 45 -25 4 -16 13 -25 26 -25 12 0 18 5 15 12 -32 81 -80 194
-85 200 -4 4 -24 -35 -44 -85z m52 -6 c0 -5 3 -16 6 -25 4 -12 0 -16 -15 -16
-22 0 -25 8 -15 34 7 17 24 22 24 7z"/>
<path d="M3490 210 c0 -91 3 -110 15 -110 10 0 15 11 15 35 0 24 5 35 14 35 8
0 27 -16 42 -35 15 -19 35 -35 46 -35 19 0 19 2 -6 34 -30 40 -31 43 -11 62
16 16 20 71 7 91 -10 16 -57 33 -93 33 l-29 0 0 -110z m84 67 c35 -25 2 -89
-38 -74 -10 4 -16 18 -16 40 0 49 18 60 54 34z"/>
<path d="M3670 210 l0 -110 65 0 c51 0 65 3 65 15 0 11 -12 15 -50 15 l-50 0
0 35 c0 34 1 35 40 35 29 0 40 4 40 15 0 11 -11 15 -41 15 -38 0 -40 1 -37 28
3 25 7 27 51 30 71 5 55 26 -21 30 l-62 3 0 -111z"/>
<path d="M3910 210 c0 -91 3 -110 15 -110 10 0 15 11 15 35 0 28 4 35 20 35
57 0 96 50 78 102 -10 28 -50 48 -99 48 l-29 0 0 -110z m81 70 c26 -14 25 -56
-2 -70 -31 -17 -49 -5 -49 33 0 48 13 57 51 37z"/>
<path d="M4077 314 c-4 -4 -7 -54 -7 -111 l0 -103 65 0 c51 0 65 3 65 15 0 11
-12 15 -45 15 l-44 0 -3 92 c-3 84 -12 111 -31 92z"/>
<path d="M4268 227 c-54 -132 -52 -127 -34 -127 9 0 22 11 28 25 9 20 18 25
49 25 33 0 40 -4 45 -25 4 -16 13 -25 26 -25 12 0 18 5 15 12 -32 81 -80 194
-85 200 -4 4 -24 -35 -44 -85z m52 -6 c0 -5 3 -16 6 -25 4 -12 0 -16 -15 -16
-22 0 -25 8 -15 34 7 17 24 22 24 7z"/>
<path d="M4380 315 c0 -3 16 -27 35 -54 30 -42 35 -56 35 -105 0 -43 3 -56 15
-56 11 0 15 13 15 54 0 45 5 60 35 99 19 25 35 51 35 56 0 21 -20 10 -51 -29
l-32 -40 -29 40 c-17 22 -36 40 -44 40 -8 0 -14 -2 -14 -5z"/>
<path d="M2864 129 c-10 -17 13 -36 27 -22 12 12 4 33 -11 33 -5 0 -12 -5 -16
-11z"/>
<path d="M3834 129 c-10 -17 13 -36 27 -22 12 12 4 33 -11 33 -5 0 -12 -5 -16
-11z"/>
</g>
</svg>
